<svg xmlns="http://www.w3.org/2000/svg" viewBox="0 0 512 512"><title>instalogo</title><path d="M654,639H404c-5.232-.833-10.528-1.381-15.686-2.541-58-13.051-95.215-48.152-111.123-105.49-2.072-7.469-2.826-15.3-4.191-22.969V258c.833-5.232,1.382-10.528,2.541-15.687,13.042-58.013,48.16-95.207,105.49-111.122,7.469-2.073,15.3-2.826,22.969-4.191H654c5.232.833,10.528,1.381,15.686,2.541,58.01,13.045,95.207,48.16,111.123,105.49,2.073,7.469,2.826,15.3,4.191,22.969V508c-.833,5.232-1.382,10.528-2.542,15.687-13.044,58.009-48.16,95.207-105.49,111.122C669.5,636.882,661.665,637.635,654,639ZM528.5,593.609q55.737,0,111.475-.015c11.708-.014,23.27-1.186,34.4-5.151,40.718-14.506,65.164-49.527,65.213-93.842.083-74.316.238-148.634-.205-222.949a109.745,109.745,0,0,0-5.168-33.817c-13.764-40.954-49.235-65.36-93.49-65.418-74.483-.1-148.968-.235-223.448.2a108.5,108.5,0,0,0-33.332,5.111c-40.763,13.652-65.393,48.99-65.5,92.921q-.274,112.475-.008,224.95c.059,33.366,13.392,60.344,40.419,80.131,17.4,12.74,37.255,17.935,58.671,17.9Q473.011,593.528,528.5,593.609Z" transform="translate(-273 -127)"/><path d="M660.946,382.94c.078,72.436-59.58,132.091-132.011,132.006-72.545-.086-132.119-59.775-131.881-132.134.239-72.445,59.315-131.521,131.759-131.758C601.166,250.818,660.868,310.408,660.946,382.94Zm-45.521.152c.129-47.576-38.6-86.388-86.334-86.517-47.584-.128-86.384,38.59-86.516,86.332-.131,47.575,38.594,86.384,86.331,86.518C576.473,469.558,615.294,430.82,615.425,383.092Z" transform="translate(-273 -127)"/><path d="M667.205,212.74c18.313.519,33.129,15.8,32.58,33.615a33.441,33.441,0,0,1-34.544,32.676c-17.869-.6-32.585-16.033-32.086-33.644C633.68,226.855,648.942,212.222,667.205,212.74Z" transform="translate(-273 -127)"/></svg>